<svg width="640" height="1024" viewBox="0 0 640 1024" fill="none" xmlns="http://www.w3.org/2000/svg">
<rect width="640" height="1024" fill="#033C59"/>
<rect width="640" height="1024" fill="#033C59"/>
<circle cx="307.158" cy="426.842" r="92.8417" stroke="#F5A302" stroke-width="10"/>
<circle cx="262.151" cy="430.755" r="9.78417" fill="#FFD35C"/>
<circle cx="223.014" cy="534.468" r="9.78417" fill="#FFD35C"/>
<circle cx="318.899" cy="430.755" r="9.78417" fill="#FFD35C"/>
<circle cx="279.763" cy="534.468" r="9.78417" fill="#FFD35C"/>
<circle cx="230.842" cy="557.95" r="92.8417" stroke="#F5A302" stroke-width="10"/>
<path d="M279.983 555.125C263.171 571.937 235.913 571.937 219.101 555.125" stroke="#FFD35C" stroke-width="10" stroke-linecap="round"/>
<path d="M323.033 451.413C306.221 468.225 278.963 468.225 262.151 451.413" stroke="#FFD35C" stroke-width="10" stroke-linecap="round"/>
<path d="M257.259 504.137C245.518 496.31 228.885 477.394 222.036 468.914C237.691 470.871 252.367 465.001 264.108 468.914C278.784 473.806 319.878 518.813 314.986 518.813C310.094 518.813 271.935 513.921 257.259 504.137Z" fill="#F5A302"/>
<path d="M367.918 579V552.818H377.737C379.748 552.818 381.435 553.193 382.799 553.943C384.171 554.693 385.207 555.724 385.906 557.037C386.613 558.341 386.967 559.824 386.967 561.486C386.967 563.165 386.613 564.656 385.906 565.96C385.198 567.264 384.154 568.291 382.773 569.041C381.393 569.783 379.692 570.153 377.673 570.153H371.165V566.254H377.033C378.21 566.254 379.173 566.05 379.923 565.641C380.673 565.232 381.227 564.669 381.585 563.953C381.951 563.237 382.134 562.415 382.134 561.486C382.134 560.557 381.951 559.739 381.585 559.031C381.227 558.324 380.668 557.774 379.91 557.382C379.16 556.982 378.192 556.781 377.008 556.781H372.661V579H367.918ZM396.181 579.396C394.936 579.396 393.816 579.175 392.819 578.732C391.83 578.28 391.046 577.615 390.466 576.737C389.895 575.859 389.61 574.777 389.61 573.49C389.61 572.382 389.814 571.466 390.223 570.741C390.632 570.017 391.191 569.438 391.898 569.003C392.605 568.568 393.402 568.24 394.289 568.018C395.184 567.788 396.108 567.622 397.063 567.52C398.213 567.401 399.147 567.294 399.863 567.2C400.578 567.098 401.098 566.945 401.422 566.74C401.755 566.527 401.921 566.199 401.921 565.756V565.679C401.921 564.716 401.635 563.97 401.064 563.442C400.493 562.913 399.671 562.649 398.597 562.649C397.463 562.649 396.564 562.896 395.9 563.391C395.243 563.885 394.8 564.469 394.57 565.142L390.249 564.528C390.59 563.335 391.152 562.338 391.936 561.537C392.721 560.727 393.679 560.122 394.813 559.722C395.946 559.312 397.199 559.108 398.571 559.108C399.517 559.108 400.459 559.219 401.397 559.44C402.334 559.662 403.191 560.028 403.966 560.54C404.742 561.043 405.364 561.729 405.833 562.598C406.31 563.467 406.549 564.554 406.549 565.858V579H402.1V576.303H401.946C401.665 576.848 401.269 577.359 400.757 577.837C400.255 578.305 399.62 578.685 398.853 578.974C398.094 579.256 397.203 579.396 396.181 579.396ZM397.382 575.996C398.311 575.996 399.117 575.812 399.799 575.446C400.48 575.071 401.005 574.577 401.371 573.963C401.746 573.349 401.934 572.68 401.934 571.956V569.642C401.789 569.761 401.542 569.872 401.192 569.974C400.851 570.077 400.468 570.166 400.042 570.243C399.615 570.32 399.194 570.388 398.776 570.447C398.358 570.507 397.996 570.558 397.689 570.601C396.999 570.695 396.381 570.848 395.836 571.061C395.29 571.274 394.86 571.572 394.544 571.956C394.229 572.331 394.071 572.817 394.071 573.413C394.071 574.266 394.382 574.909 395.005 575.344C395.627 575.778 396.419 575.996 397.382 575.996ZM411.202 579V559.364H415.689V562.636H415.894C416.252 561.503 416.865 560.629 417.735 560.016C418.613 559.393 419.614 559.082 420.739 559.082C420.995 559.082 421.28 559.095 421.596 559.121C421.919 559.138 422.188 559.168 422.401 559.21V563.467C422.205 563.399 421.894 563.339 421.468 563.288C421.05 563.229 420.645 563.199 420.253 563.199C419.409 563.199 418.651 563.382 417.978 563.749C417.313 564.107 416.789 564.605 416.405 565.244C416.022 565.884 415.83 566.621 415.83 567.456V579H411.202ZM429.694 572.838L429.681 567.251H430.423L437.48 559.364H442.887L434.207 569.028H433.248L429.694 572.838ZM425.475 579V552.818H430.103V579H425.475ZM437.799 579L431.407 570.064L434.527 566.804L443.335 579H437.799ZM446.176 579V552.818H450.919V575.024H462.45V579H446.176ZM475.055 579.384C473.087 579.384 471.386 578.974 469.955 578.156C468.531 577.33 467.436 576.162 466.669 574.653C465.902 573.136 465.518 571.351 465.518 569.297C465.518 567.277 465.902 565.504 466.669 563.979C467.445 562.445 468.527 561.251 469.916 560.399C471.305 559.538 472.938 559.108 474.812 559.108C476.023 559.108 477.165 559.304 478.239 559.696C479.321 560.08 480.276 560.676 481.102 561.486C481.938 562.295 482.594 563.327 483.071 564.58C483.548 565.824 483.787 567.307 483.787 569.028V570.447H467.692V567.328H479.351C479.342 566.442 479.151 565.653 478.776 564.963C478.401 564.264 477.876 563.714 477.203 563.314C476.538 562.913 475.763 562.713 474.876 562.713C473.93 562.713 473.099 562.943 472.384 563.403C471.668 563.855 471.109 564.452 470.709 565.193C470.317 565.926 470.116 566.732 470.108 567.609V570.332C470.108 571.474 470.317 572.455 470.734 573.273C471.152 574.082 471.736 574.705 472.486 575.139C473.236 575.565 474.114 575.778 475.119 575.778C475.793 575.778 476.402 575.685 476.947 575.497C477.493 575.301 477.966 575.016 478.366 574.641C478.767 574.266 479.07 573.801 479.274 573.247L483.595 573.733C483.322 574.875 482.803 575.872 482.036 576.724C481.277 577.568 480.305 578.224 479.121 578.693C477.936 579.153 476.581 579.384 475.055 579.384ZM496.395 579.384C494.426 579.384 492.726 578.974 491.294 578.156C489.871 577.33 488.776 576.162 488.009 574.653C487.242 573.136 486.858 571.351 486.858 569.297C486.858 567.277 487.242 565.504 488.009 563.979C488.784 562.445 489.867 561.251 491.256 560.399C492.645 559.538 494.277 559.108 496.152 559.108C497.363 559.108 498.505 559.304 499.578 559.696C500.661 560.08 501.615 560.676 502.442 561.486C503.277 562.295 503.934 563.327 504.411 564.58C504.888 565.824 505.127 567.307 505.127 569.028V570.447H489.032V567.328H500.691C500.682 566.442 500.49 565.653 500.115 564.963C499.74 564.264 499.216 563.714 498.543 563.314C497.878 562.913 497.103 562.713 496.216 562.713C495.27 562.713 494.439 562.943 493.723 563.403C493.007 563.855 492.449 564.452 492.049 565.193C491.657 565.926 491.456 566.732 491.448 567.609V570.332C491.448 571.474 491.657 572.455 492.074 573.273C492.492 574.082 493.076 574.705 493.826 575.139C494.576 575.565 495.453 575.778 496.459 575.778C497.132 575.778 497.742 575.685 498.287 575.497C498.833 575.301 499.306 575.016 499.706 574.641C500.107 574.266 500.409 573.801 500.614 573.247L504.935 573.733C504.662 574.875 504.142 575.872 503.375 576.724C502.617 577.568 501.645 578.224 500.461 578.693C499.276 579.153 497.921 579.384 496.395 579.384ZM386.915 623H378.043V596.818H387.094C389.694 596.818 391.927 597.342 393.793 598.391C395.668 599.43 397.109 600.926 398.114 602.878C399.12 604.83 399.623 607.165 399.623 609.884C399.623 612.611 399.116 614.955 398.102 616.915C397.096 618.875 395.643 620.379 393.742 621.428C391.85 622.476 389.575 623 386.915 623ZM382.786 618.896H386.685C388.509 618.896 390.031 618.564 391.249 617.899C392.468 617.226 393.384 616.224 393.998 614.895C394.612 613.557 394.918 611.886 394.918 609.884C394.918 607.881 394.612 606.219 393.998 604.898C393.384 603.568 392.477 602.575 391.275 601.919C390.082 601.254 388.599 600.922 386.826 600.922H382.786V618.896ZM409.575 623.396C408.331 623.396 407.21 623.175 406.213 622.732C405.224 622.28 404.44 621.615 403.861 620.737C403.29 619.859 403.004 618.777 403.004 617.49C403.004 616.382 403.209 615.466 403.618 614.741C404.027 614.017 404.585 613.438 405.293 613.003C406 612.568 406.797 612.24 407.683 612.018C408.578 611.788 409.503 611.622 410.457 611.52C411.608 611.401 412.541 611.294 413.257 611.2C413.973 611.098 414.493 610.945 414.817 610.74C415.149 610.527 415.315 610.199 415.315 609.756V609.679C415.315 608.716 415.03 607.97 414.459 607.442C413.888 606.913 413.065 606.649 411.991 606.649C410.858 606.649 409.959 606.896 409.294 607.391C408.638 607.885 408.195 608.469 407.964 609.142L403.643 608.528C403.984 607.335 404.547 606.338 405.331 605.537C406.115 604.727 407.074 604.122 408.207 603.722C409.341 603.312 410.594 603.108 411.966 603.108C412.912 603.108 413.854 603.219 414.791 603.44C415.729 603.662 416.585 604.028 417.361 604.54C418.136 605.043 418.759 605.729 419.227 606.598C419.705 607.467 419.943 608.554 419.943 609.858V623H415.494V620.303H415.341C415.06 620.848 414.663 621.359 414.152 621.837C413.649 622.305 413.014 622.685 412.247 622.974C411.489 623.256 410.598 623.396 409.575 623.396ZM410.777 619.996C411.706 619.996 412.511 619.812 413.193 619.446C413.875 619.071 414.399 618.577 414.766 617.963C415.141 617.349 415.328 616.68 415.328 615.956V613.642C415.183 613.761 414.936 613.872 414.587 613.974C414.246 614.077 413.862 614.166 413.436 614.243C413.01 614.32 412.588 614.388 412.17 614.447C411.753 614.507 411.391 614.558 411.084 614.601C410.393 614.695 409.776 614.848 409.23 615.061C408.685 615.274 408.254 615.572 407.939 615.956C407.624 616.331 407.466 616.817 407.466 617.413C407.466 618.266 407.777 618.909 408.399 619.344C409.021 619.778 409.814 619.996 410.777 619.996ZM424.597 623V603.364H429.02V606.7H429.25C429.659 605.575 430.337 604.697 431.283 604.067C432.229 603.428 433.358 603.108 434.67 603.108C436 603.108 437.121 603.432 438.033 604.08C438.953 604.719 439.601 605.592 439.976 606.7H440.18C440.615 605.609 441.348 604.74 442.379 604.092C443.419 603.436 444.651 603.108 446.074 603.108C447.881 603.108 449.355 603.679 450.497 604.821C451.639 605.963 452.21 607.629 452.21 609.82V623H447.57V610.536C447.57 609.317 447.246 608.426 446.598 607.864C445.95 607.293 445.158 607.007 444.22 607.007C443.104 607.007 442.23 607.357 441.599 608.055C440.977 608.746 440.666 609.645 440.666 610.753V623H436.128V610.344C436.128 609.33 435.821 608.52 435.207 607.915C434.602 607.31 433.81 607.007 432.83 607.007C432.165 607.007 431.56 607.178 431.014 607.518C430.469 607.851 430.034 608.324 429.71 608.938C429.386 609.543 429.224 610.25 429.224 611.06V623H424.597ZM462.556 623.396C461.311 623.396 460.191 623.175 459.194 622.732C458.205 622.28 457.421 621.615 456.841 620.737C456.27 619.859 455.985 618.777 455.985 617.49C455.985 616.382 456.189 615.466 456.598 614.741C457.007 614.017 457.566 613.438 458.273 613.003C458.98 612.568 459.777 612.24 460.664 612.018C461.559 611.788 462.483 611.622 463.438 611.52C464.588 611.401 465.522 611.294 466.238 611.2C466.953 611.098 467.473 610.945 467.797 610.74C468.13 610.527 468.296 610.199 468.296 609.756V609.679C468.296 608.716 468.01 607.97 467.439 607.442C466.868 606.913 466.046 606.649 464.972 606.649C463.838 606.649 462.939 606.896 462.275 607.391C461.618 607.885 461.175 608.469 460.945 609.142L456.624 608.528C456.965 607.335 457.527 606.338 458.311 605.537C459.096 604.727 460.054 604.122 461.188 603.722C462.321 603.312 463.574 603.108 464.946 603.108C465.892 603.108 466.834 603.219 467.772 603.44C468.709 603.662 469.566 604.028 470.341 604.54C471.117 605.043 471.739 605.729 472.208 606.598C472.685 607.467 472.924 608.554 472.924 609.858V623H468.475V620.303H468.321C468.04 620.848 467.644 621.359 467.132 621.837C466.63 622.305 465.995 622.685 465.228 622.974C464.469 623.256 463.578 623.396 462.556 623.396ZM463.757 619.996C464.686 619.996 465.492 619.812 466.174 619.446C466.855 619.071 467.38 618.577 467.746 617.963C468.121 617.349 468.309 616.68 468.309 615.956V613.642C468.164 613.761 467.917 613.872 467.567 613.974C467.226 614.077 466.843 614.166 466.417 614.243C465.99 614.32 465.569 614.388 465.151 614.447C464.733 614.507 464.371 614.558 464.064 614.601C463.374 614.695 462.756 614.848 462.211 615.061C461.665 615.274 461.235 615.572 460.919 615.956C460.604 616.331 460.446 616.817 460.446 617.413C460.446 618.266 460.757 618.909 461.38 619.344C462.002 619.778 462.794 619.996 463.757 619.996ZM486.27 623.384C484.301 623.384 482.601 622.974 481.169 622.156C479.746 621.33 478.651 620.162 477.884 618.653C477.117 617.136 476.733 615.351 476.733 613.297C476.733 611.277 477.117 609.504 477.884 607.979C478.659 606.445 479.742 605.251 481.131 604.399C482.52 603.538 484.152 603.108 486.027 603.108C487.238 603.108 488.38 603.304 489.453 603.696C490.536 604.08 491.49 604.676 492.317 605.486C493.152 606.295 493.809 607.327 494.286 608.58C494.763 609.824 495.002 611.307 495.002 613.028V614.447H478.907V611.328H490.566C490.557 610.442 490.365 609.653 489.99 608.963C489.615 608.264 489.091 607.714 488.418 607.314C487.753 606.913 486.978 606.713 486.091 606.713C485.145 606.713 484.314 606.943 483.598 607.403C482.882 607.855 482.324 608.452 481.924 609.193C481.532 609.926 481.331 610.732 481.323 611.609V614.332C481.323 615.474 481.532 616.455 481.949 617.273C482.367 618.082 482.951 618.705 483.701 619.139C484.451 619.565 485.328 619.778 486.334 619.778C487.007 619.778 487.617 619.685 488.162 619.497C488.708 619.301 489.181 619.016 489.581 618.641C489.982 618.266 490.284 617.801 490.489 617.247L494.81 617.733C494.537 618.875 494.017 619.872 493.25 620.724C492.492 621.568 491.52 622.224 490.336 622.693C489.151 623.153 487.796 623.384 486.27 623.384Z" fill="#F5A302"/>
</svg>
