<svg width="1280" height="1024" viewBox="0 0 1280 1024" fill="none" xmlns="http://www.w3.org/2000/svg">
<rect width="1280" height="1024" fill="white"/>
<rect width="1280" height="1024" fill="#033C59"/>
<circle cx="711" cy="309" r="175.5" stroke="#F5A302" stroke-width="17"/>
<circle cx="626.5" cy="315.5" r="18.5" fill="#FFD35C"/>
<ellipse cx="553.5" cy="511" rx="18.5" ry="18" fill="#FFD35C"/>
<circle cx="733.5" cy="315.5" r="18.5" fill="#FFD35C"/>
<ellipse cx="659.5" cy="511" rx="18.5" ry="18" fill="#FFD35C"/>
<circle cx="568" cy="555" r="175.5" stroke="#F5A302" stroke-width="17"/>
<path d="M660.134 549.815C628.549 581.4 577.34 581.4 545.755 549.815" stroke="#FFD35C" stroke-width="17" stroke-linecap="round"/>
<path d="M741.012 354.974C709.427 386.558 658.218 386.558 626.633 354.974" stroke="#FFD35C" stroke-width="17" stroke-linecap="round"/>
<path d="M617.03 453.523C595.02 438.869 563.839 403.455 551 387.58C580.347 391.243 607.859 380.253 629.869 387.58C657.382 396.739 734.417 481 725.246 481C716.076 481 644.543 471.841 617.03 453.523Z" fill="#F5A302"/>
<path d="M490.654 875H466.009V802.273H491.151C498.372 802.273 504.575 803.729 509.759 806.641C514.968 809.529 518.969 813.684 521.762 819.105C524.556 824.527 525.952 831.013 525.952 838.565C525.952 846.141 524.544 852.652 521.727 858.097C518.933 863.542 514.897 867.72 509.617 870.632C504.362 873.544 498.04 875 490.654 875ZM479.184 863.601H490.015C495.081 863.601 499.307 862.678 502.692 860.831C506.078 858.961 508.623 856.179 510.327 852.486C512.032 848.769 512.884 844.129 512.884 838.565C512.884 833.002 512.032 828.385 510.327 824.716C508.623 821.023 506.102 818.265 502.763 816.442C499.449 814.595 495.33 813.672 490.406 813.672H479.184V863.601ZM553.598 876.101C550.142 876.101 547.028 875.485 544.259 874.254C541.512 873 539.334 871.153 537.724 868.714C536.138 866.276 535.345 863.269 535.345 859.695C535.345 856.617 535.913 854.072 537.05 852.06C538.186 850.047 539.737 848.438 541.702 847.23C543.667 846.023 545.88 845.111 548.342 844.496C550.828 843.857 553.397 843.395 556.048 843.111C559.244 842.779 561.837 842.483 563.825 842.223C565.814 841.939 567.258 841.513 568.158 840.945C569.081 840.353 569.543 839.441 569.543 838.21V837.997C569.543 835.322 568.75 833.25 567.163 831.783C565.577 830.315 563.293 829.581 560.31 829.581C557.161 829.581 554.663 830.268 552.817 831.641C550.994 833.014 549.763 834.635 549.124 836.506L537.121 834.801C538.068 831.487 539.63 828.717 541.808 826.491C543.986 824.242 546.65 822.562 549.798 821.449C552.947 820.312 556.427 819.744 560.239 819.744C562.866 819.744 565.482 820.052 568.087 820.668C570.691 821.283 573.07 822.301 575.224 823.722C577.379 825.118 579.107 827.024 580.409 829.439C581.735 831.854 582.398 834.872 582.398 838.494V875H570.04V867.507H569.614C568.832 869.022 567.732 870.443 566.311 871.768C564.914 873.071 563.151 874.124 561.02 874.929C558.913 875.71 556.439 876.101 553.598 876.101ZM556.936 866.655C559.517 866.655 561.754 866.146 563.648 865.128C565.542 864.086 566.998 862.713 568.016 861.009C569.057 859.304 569.578 857.446 569.578 855.433V849.006C569.176 849.337 568.489 849.645 567.518 849.929C566.571 850.213 565.506 850.462 564.322 850.675C563.139 850.888 561.967 851.077 560.807 851.243C559.647 851.409 558.641 851.551 557.788 851.669C555.871 851.929 554.154 852.356 552.639 852.947C551.124 853.539 549.929 854.368 549.053 855.433C548.177 856.475 547.739 857.824 547.739 859.482C547.739 861.849 548.603 863.636 550.331 864.844C552.059 866.051 554.261 866.655 556.936 866.655ZM595.324 875V820.455H607.611V829.723H608.25C609.386 826.598 611.268 824.16 613.896 822.408C616.524 820.632 619.661 819.744 623.307 819.744C627 819.744 630.113 820.644 632.646 822.443C635.203 824.219 637.002 826.645 638.044 829.723H638.612C639.82 826.693 641.856 824.278 644.72 822.479C647.608 820.656 651.029 819.744 654.983 819.744C660.002 819.744 664.098 821.33 667.27 824.503C670.442 827.675 672.028 832.304 672.028 838.388V875H659.138V840.376C659.138 836.991 658.238 834.517 656.439 832.955C654.64 831.368 652.438 830.575 649.834 830.575C646.732 830.575 644.306 831.546 642.554 833.487C640.826 835.405 639.962 837.902 639.962 840.98V875H627.355V839.844C627.355 837.027 626.503 834.777 624.798 833.097C623.117 831.416 620.916 830.575 618.193 830.575C616.347 830.575 614.666 831.049 613.151 831.996C611.635 832.919 610.428 834.233 609.528 835.938C608.629 837.618 608.179 839.583 608.179 841.832V875H595.324ZM700.766 876.101C697.31 876.101 694.196 875.485 691.426 874.254C688.68 873 686.502 871.153 684.892 868.714C683.306 866.276 682.513 863.269 682.513 859.695C682.513 856.617 683.081 854.072 684.218 852.06C685.354 850.047 686.905 848.438 688.87 847.23C690.835 846.023 693.048 845.111 695.51 844.496C697.996 843.857 700.565 843.395 703.216 843.111C706.412 842.779 709.005 842.483 710.993 842.223C712.982 841.939 714.426 841.513 715.326 840.945C716.249 840.353 716.711 839.441 716.711 838.21V837.997C716.711 835.322 715.917 833.25 714.331 831.783C712.745 830.315 710.461 829.581 707.478 829.581C704.329 829.581 701.831 830.268 699.985 831.641C698.162 833.014 696.931 834.635 696.292 836.506L684.289 834.801C685.236 831.487 686.798 828.717 688.976 826.491C691.154 824.242 693.818 822.562 696.966 821.449C700.115 820.312 703.595 819.744 707.407 819.744C710.034 819.744 712.65 820.052 715.255 820.668C717.859 821.283 720.238 822.301 722.392 823.722C724.547 825.118 726.275 827.024 727.577 829.439C728.903 831.854 729.566 834.872 729.566 838.494V875H717.208V867.507H716.782C716 869.022 714.9 870.443 713.479 871.768C712.082 873.071 710.319 874.124 708.188 874.929C706.081 875.71 703.607 876.101 700.766 876.101ZM704.104 866.655C706.685 866.655 708.922 866.146 710.816 865.128C712.71 864.086 714.166 862.713 715.184 861.009C716.225 859.304 716.746 857.446 716.746 855.433V849.006C716.344 849.337 715.657 849.645 714.686 849.929C713.739 850.213 712.674 850.462 711.49 850.675C710.307 850.888 709.135 851.077 707.975 851.243C706.815 851.409 705.809 851.551 704.956 851.669C703.039 851.929 701.322 852.356 699.807 852.947C698.292 853.539 697.096 854.368 696.221 855.433C695.345 856.475 694.907 857.824 694.907 859.482C694.907 861.849 695.771 863.636 697.499 864.844C699.227 866.051 701.429 866.655 704.104 866.655ZM766.64 876.065C761.171 876.065 756.448 874.929 752.471 872.656C748.517 870.36 745.475 867.116 743.344 862.926C741.213 858.712 740.148 853.752 740.148 848.047C740.148 842.436 741.213 837.512 743.344 833.274C745.498 829.013 748.505 825.698 752.364 823.331C756.223 820.94 760.757 819.744 765.965 819.744C769.327 819.744 772.499 820.289 775.482 821.378C778.489 822.443 781.14 824.1 783.436 826.349C785.757 828.598 787.579 831.463 788.905 834.943C790.231 838.4 790.894 842.519 790.894 847.301V851.243H746.185V842.578H778.571C778.548 840.116 778.015 837.926 776.973 836.009C775.932 834.067 774.476 832.54 772.605 831.428C770.759 830.315 768.605 829.759 766.142 829.759C763.515 829.759 761.206 830.398 759.218 831.676C757.229 832.931 755.678 834.588 754.566 836.648C753.477 838.684 752.92 840.921 752.897 843.359V850.923C752.897 854.096 753.477 856.818 754.637 859.091C755.797 861.34 757.418 863.068 759.502 864.276C761.585 865.459 764.024 866.051 766.817 866.051C768.687 866.051 770.38 865.791 771.895 865.27C773.41 864.725 774.724 863.932 775.837 862.891C776.95 861.849 777.79 860.559 778.358 859.02L790.361 860.369C789.604 863.542 788.159 866.312 786.029 868.679C783.922 871.023 781.223 872.846 777.932 874.148C774.641 875.426 770.877 876.065 766.64 876.065Z" fill="#F5A302"/>
</svg>
