<svg width="250" height="250" viewBox="0 0 250 250" fill="none" xmlns="http://www.w3.org/2000/svg">
<rect width="250" height="250" fill="white"/>
<mask id="path-1-inside-1_117_28" fill="white">
<rect x="24" y="107" width="178" height="88" rx="5"/>
</mask>
<rect x="24" y="107" width="178" height="88" rx="5" stroke="black" stroke-width="20" stroke-linejoin="round" mask="url(#path-1-inside-1_117_28)"/>
<mask id="path-2-inside-2_117_28" fill="white">
<rect x="41" y="40" width="144" height="77" rx="5"/>
</mask>
<rect x="41" y="40" width="144" height="77" rx="5" stroke="black" stroke-width="20" stroke-linejoin="round" mask="url(#path-2-inside-2_117_28)"/>
<path d="M118 46V112" stroke="black" stroke-width="10" stroke-linecap="round" stroke-linejoin="round"/>
<path d="M133 118V184" stroke="black" stroke-width="10" stroke-linecap="round" stroke-linejoin="round"/>
<mask id="path-5-inside-3_117_28" fill="white">
<rect x="58" y="40" width="40" height="30" rx="5"/>
</mask>
<rect x="58" y="40" width="40" height="30" rx="5" fill="black" stroke="black" stroke-width="20" stroke-linejoin="round" mask="url(#path-5-inside-3_117_28)"/>
<mask id="path-6-inside-4_117_28" fill="white">
<rect x="53" y="107" width="45" height="34" rx="5"/>
</mask>
<rect x="53" y="107" width="45" height="34" rx="5" fill="black" stroke="black" stroke-width="20" stroke-linejoin="round" mask="url(#path-6-inside-4_117_28)"/>
<rect x="161.071" y="184.799" width="18" height="60" rx="9" transform="rotate(-45 161.071 184.799)" fill="white" stroke="black" stroke-width="10"/>
<circle cx="147.5" cy="151.5" r="57.5" fill="white" stroke="black" stroke-width="10"/>
<circle cx="148" cy="152" r="43" fill="white" stroke="black" stroke-width="10"/>
</svg>
