<svg width="250" height="250" viewBox="0 0 250 250" fill="none" xmlns="http://www.w3.org/2000/svg">
<rect width="250" height="250" fill="white"/>
<path d="M160 92L210 92V224H160V92Z" fill="white" stroke="black" stroke-width="10"/>
<path d="M100 136L150 136V224H100V136Z" fill="white" stroke="black" stroke-width="10"/>
<path d="M40 181L90 181V224H40V181Z" fill="white" stroke="black" stroke-width="10"/>
<path d="M118.343 25.309L123.098 26.8541L118.343 25.309L113.958 38.8024H99.7705C92.9894 38.8024 90.17 47.4798 95.656 51.4656L98.5949 47.4205L95.656 51.4656L107.134 59.805L102.75 73.2984C100.654 79.7476 108.036 85.1104 113.522 81.1246L125 72.7852L136.478 81.1246C141.964 85.1104 149.346 79.7475 147.25 73.2984L142.866 59.805L154.344 51.4656C159.83 47.4797 157.011 38.8024 150.229 38.8024H136.042L131.657 25.309C129.562 18.8598 120.438 18.8599 118.343 25.309Z" fill="white" stroke="black" stroke-width="10"/>
</svg>
