<svg width="250" height="250" viewBox="0 0 250 250" fill="none" xmlns="http://www.w3.org/2000/svg">
<rect width="250" height="250" fill="white"/>
<path d="M39 127H53V206H39V127Z" fill="white" stroke="black" stroke-width="10"/>
<path d="M66.5 202V136H85.2784C90.9485 136 96.4748 137.785 101.073 141.102L124.5 158H151.5C157.023 158 161.5 162.477 161.5 168C161.5 173.523 157.023 178 151.5 178H106.5C103.739 178 101.5 180.239 101.5 183C101.5 185.761 103.739 188 106.5 188H161.5L196.233 169.018C200.961 166.434 206.872 167.762 210.041 172.119C213.583 176.989 212.419 183.819 207.466 187.242L166.519 215.532C163.251 217.79 159.372 219 155.399 219H108.86C104.017 219 99.2362 217.9 94.8794 215.784L66.5 202Z" fill="white" stroke="black" stroke-width="10"/>
<path d="M123.136 111.818V53.6364H126.864V111.818H123.136ZM133.886 72.25C133.674 70.2652 132.78 68.7197 131.205 67.6136C129.644 66.5076 127.614 65.9545 125.114 65.9545C123.356 65.9545 121.848 66.2197 120.591 66.75C119.333 67.2803 118.371 68 117.705 68.9091C117.038 69.8182 116.697 70.8561 116.682 72.0227C116.682 72.9924 116.902 73.8333 117.341 74.5455C117.795 75.2576 118.409 75.8636 119.182 76.3636C119.955 76.8485 120.811 77.2576 121.75 77.5909C122.689 77.9242 123.636 78.2045 124.591 78.4318L128.955 79.5227C130.712 79.9318 132.402 80.4848 134.023 81.1818C135.659 81.8788 137.121 82.7576 138.409 83.8182C139.712 84.8788 140.742 86.1591 141.5 87.6591C142.258 89.1591 142.636 90.9167 142.636 92.9318C142.636 95.6591 141.939 98.0606 140.545 100.136C139.152 102.197 137.136 103.811 134.5 104.977C131.879 106.129 128.705 106.705 124.977 106.705C121.356 106.705 118.212 106.144 115.545 105.023C112.894 103.902 110.818 102.265 109.318 100.114C107.833 97.9621 107.03 95.3409 106.909 92.25H115.205C115.326 93.8712 115.826 95.2197 116.705 96.2955C117.583 97.3712 118.727 98.1742 120.136 98.7045C121.561 99.2348 123.152 99.5 124.909 99.5C126.742 99.5 128.348 99.2273 129.727 98.6818C131.121 98.1212 132.212 97.3485 133 96.3636C133.788 95.3636 134.189 94.197 134.205 92.8636C134.189 91.6515 133.833 90.6515 133.136 89.8636C132.439 89.0606 131.462 88.3939 130.205 87.8636C128.962 87.3182 127.508 86.8333 125.841 86.4091L120.545 85.0455C116.712 84.0606 113.682 82.5682 111.455 80.5682C109.242 78.553 108.136 75.8788 108.136 72.5455C108.136 69.803 108.879 67.4015 110.364 65.3409C111.864 63.2803 113.902 61.6818 116.477 60.5455C119.053 59.3939 121.97 58.8182 125.227 58.8182C128.53 58.8182 131.424 59.3939 133.909 60.5455C136.409 61.6818 138.371 63.2652 139.795 65.2955C141.22 67.3106 141.955 69.6288 142 72.25H133.886Z" fill="black"/>
<path d="M125 132C153.167 132 176 109.167 176 81C176 52.8335 153.167 30 125 30C96.8335 30 74 52.8335 74 81" stroke="black" stroke-width="10" stroke-linecap="round"/>
<path d="M75.7321 95C74.9622 96.3333 73.0377 96.3333 72.2679 95L62.7417 78.5C61.9719 77.1667 62.9341 75.5 64.4737 75.5L83.5263 75.5C85.0659 75.5 86.0281 77.1667 85.2583 78.5L75.7321 95Z" fill="black"/>
<path d="M125.5 53.5V112" stroke="black" stroke-width="8" stroke-linecap="round"/>
</svg>
